<svg xmlns="http://www.w3.org/2000/svg" width="128" height="128" viewBox="0 0 128 128" role="img" aria-label="Brick material preview">
  <rect width="128" height="128" rx="10" fill="#b84b3f"/>
  <g fill="#cf6254">
    <rect x="6" y="8" width="52" height="26" rx="3"/>
    <rect x="70" y="8" width="52" height="26" rx="3"/>
    <rect x="22" y="48" width="52" height="26" rx="3"/>
    <rect x="86" y="48" width="36" height="26" rx="3"/>
    <rect x="6" y="88" width="52" height="26" rx="3"/>
    <rect x="70" y="88" width="52" height="26" rx="3"/>
  </g>
  <g fill="none" stroke="#7f2f29" stroke-width="4" stroke-linecap="round">
    <path d="M0 40h128M0 80h128"/>
    <path d="M64 6v30M16 46v30M80 46v30M64 86v30"/>
  </g>
  <g stroke="#f0c3b9" stroke-width="2" opacity="0.5">
    <path d="M14 18h34M78 20h30M32 58h30M12 100h34M82 98h28"/>
  </g>
</svg>

