<svg xmlns="http://www.w3.org/2000/svg" viewBox="0 0 128 128" role="img" aria-label="亂石材質">
  <rect width="128" height="128" rx="12" fill="#575345"/>
  <g stroke="#343027" stroke-width="5" stroke-linejoin="round">
    <path d="M-4 28h30l10-18h36l8 20h52"/>
    <path d="M0 61h22l8-17h30l9 17h28l7-14h28"/>
    <path d="M-4 94h34l7-18h36l8 20h52"/>
    <path d="M28 0v29M75 0v31M25 28v33M66 31v30M102 48v80M36 77v51M79 93v35"/>
  </g>
  <g fill="#918b78" stroke="#d8d0aa" stroke-width="2" opacity="0.92">
    <rect x="5" y="7" width="25" height="20" rx="8"/>
    <rect x="38" y="8" width="36" height="22" rx="7"/>
    <rect x="84" y="8" width="38" height="22" rx="10"/>
    <rect x="5" y="36" width="23" height="24" rx="9"/>
    <rect x="36" y="37" width="31" height="23" rx="6"/>
    <rect x="78" y="35" width="25" height="25" rx="8"/>
    <rect x="8" y="68" width="30" height="25" rx="10"/>
    <rect x="46" y="69" width="34" height="24" rx="7"/>
    <rect x="90" y="66" width="31" height="28" rx="11"/>
    <rect x="5" y="101" width="31" height="20" rx="8"/>
    <rect x="45" y="100" width="36" height="22" rx="7"/>
    <rect x="91" y="99" width="31" height="23" rx="9"/>
  </g>
  <g stroke="#f1edcf" stroke-width="2" opacity="0.36" stroke-linecap="round">
    <path d="M13 17h10M49 18h16M94 19h18M15 48h7M48 48h11M97 80h12M56 112h16"/>
  </g>
</svg>
